<svg width="145" height="32" viewBox="0 0 145 32" fill="none" xmlns="http://www.w3.org/2000/svg">
<path fill-rule="evenodd" clip-rule="evenodd" d="M54.9224 7.47577V27.4835H59.6536V25.5412C60.8813 27.0031 62.6701 27.7341 65.0198 27.7341C66.6074 27.7341 68.0469 27.379 69.3382 26.669C70.6506 25.938 71.6773 24.9252 72.4182 23.6304C73.1591 22.3147 73.5295 20.7901 73.5295 19.0567C73.5295 17.3234 73.1591 15.8093 72.4182 14.5145C71.6773 13.1988 70.6506 12.1859 69.3382 11.4758C68.0469 10.7449 66.6074 10.3794 65.0198 10.3794C62.8394 10.3794 61.1248 11.0581 59.8758 12.4156V5.19698L54.9224 7.47577ZM109.642 7.2573V12.4156C108.414 11.0581 106.71 10.3794 104.529 10.3794C102.921 10.3794 101.46 10.7344 100.148 11.4445C98.8563 12.1545 97.8402 13.1674 97.0993 14.4831C96.3584 15.7988 95.9879 17.3234 95.9879 19.0567C95.9879 20.7901 96.3584 22.3147 97.0993 23.6304C97.8402 24.946 98.8563 25.9589 100.148 26.669C101.46 27.379 102.921 27.7341 104.529 27.7341C106.858 27.7341 108.636 27.0031 109.864 25.5412V27.4835H114.595V4.97852L109.642 7.2573ZM131.785 7.41726L136.739 5.13848V27.4835H132.008V25.5412C130.78 27.0031 129.002 27.7341 126.673 27.7341C125.064 27.7341 123.604 27.379 122.291 26.669C121 25.9589 119.984 24.946 119.243 23.6304C118.502 22.3147 118.132 20.7901 118.132 19.0567C118.132 17.3234 118.502 15.7988 119.243 14.4831C119.984 13.1674 121 12.1545 122.291 11.4445C123.604 10.7344 125.064 10.3794 126.673 10.3794C128.854 10.3794 130.558 11.0581 131.785 12.4156V7.41726ZM67.2742 22.4713C66.4698 23.3066 65.4326 23.7243 64.1625 23.7243C62.8923 23.7243 61.8445 23.3066 61.0189 22.4713C60.2145 21.615 59.8123 20.4769 59.8123 19.0567C59.8123 17.6366 60.2145 16.5089 61.0189 15.6735C61.8445 14.8173 62.8923 14.3891 64.1625 14.3891C65.4326 14.3891 66.4698 14.8173 67.2742 15.6735C68.0998 16.5089 68.5126 17.6366 68.5126 19.0567C68.5126 20.4769 68.0998 21.615 67.2742 22.4713ZM18.0038 19.1194C18.0038 19.182 17.9721 19.6206 17.9086 20.4351H4.98519C5.21804 21.4793 5.76842 22.3042 6.63633 22.9098C7.50424 23.5155 8.58384 23.8183 9.87512 23.8183C10.7642 23.8183 11.5474 23.693 12.2248 23.4424C12.9234 23.1709 13.569 22.7532 14.1617 22.1894L16.7972 25.0087C15.1884 26.8256 12.8387 27.7341 9.74811 27.7341C7.82177 27.7341 6.1177 27.3686 4.63591 26.6377C3.15411 25.8858 2.01101 24.8521 1.20661 23.5364C0.402202 22.2207 0 20.7275 0 19.0567C0 17.4069 0.391618 15.9241 1.17485 14.6084C1.97926 13.2718 3.06944 12.2381 4.44539 11.5071C5.84251 10.7553 7.3984 10.3794 9.11305 10.3794C10.7854 10.3794 12.2989 10.7344 13.6537 11.4445C15.0085 12.1545 16.0669 13.1779 16.829 14.5145C17.6122 15.8301 18.0038 17.3651 18.0038 19.1194ZM9.1448 14.0759C8.02287 14.0759 7.08087 14.3891 6.3188 15.0157C5.55674 15.6422 5.09103 16.4984 4.92168 17.5844H13.3362C13.1668 16.5193 12.7011 15.6735 11.939 15.047C11.177 14.3996 10.2456 14.0759 9.1448 14.0759ZM43.3381 10.3794C45.4761 10.3794 47.1696 11.0059 48.4185 12.259C49.6886 13.4911 50.3237 15.3498 50.3237 17.835V27.4835H45.3703V18.5868C45.3703 17.2503 45.0845 16.2583 44.5129 15.6109C43.9626 14.9426 43.1687 14.6084 42.1315 14.6084C40.9672 14.6084 40.0464 14.9843 39.369 15.7362C38.6916 16.4671 38.3529 17.5635 38.3529 19.0254V27.4835H33.3995V18.5868C33.3995 15.9346 32.3199 14.6084 30.1607 14.6084C29.0176 14.6084 28.1073 14.9843 27.4299 15.7362C26.7526 16.4671 26.4139 17.5635 26.4139 19.0254V27.4835H21.4604V10.63H26.1916V12.5722C26.8266 11.8622 27.5993 11.3192 28.5095 10.9433C29.441 10.5674 30.457 10.3794 31.5578 10.3794C32.7644 10.3794 33.8546 10.6196 34.8283 11.0999C35.8021 11.5594 36.5853 12.2381 37.178 13.1361C37.8766 12.259 38.7551 11.5802 39.8135 11.0999C40.8931 10.6196 42.068 10.3794 43.3381 10.3794ZM93.7379 19.1194C93.7379 19.182 93.7062 19.6206 93.6427 20.4351H80.7193C80.9521 21.4793 81.5025 22.3042 82.3704 22.9098C83.2383 23.5155 84.3179 23.8183 85.6092 23.8183C86.4983 23.8183 87.2815 23.693 87.9589 23.4424C88.6575 23.1709 89.3031 22.7532 89.8959 22.1894L92.5313 25.0087C90.9225 26.8256 88.5728 27.7341 85.4822 27.7341C83.5559 27.7341 81.8518 27.3686 80.37 26.6377C78.8882 25.8858 77.7451 24.8521 76.9407 23.5364C76.1363 22.2207 75.7341 20.7275 75.7341 19.0567C75.7341 17.4069 76.1257 15.9241 76.909 14.6084C77.7134 13.2718 78.8035 12.2381 80.1795 11.5071C81.5766 10.7553 83.1325 10.3794 84.8472 10.3794C86.5195 10.3794 88.033 10.7344 89.3878 11.4445C90.7426 12.1545 91.801 13.1779 92.5631 14.5145C93.3463 15.8301 93.7379 17.3651 93.7379 19.1194ZM84.8789 14.0759C83.757 14.0759 82.815 14.3891 82.0529 15.0157C81.2908 15.6422 80.8251 16.4984 80.6558 17.5844H89.0703C88.9009 16.5193 88.4352 15.6735 87.6732 15.047C86.9111 14.3996 85.9797 14.0759 84.8789 14.0759ZM108.499 22.4713C107.673 23.3066 106.636 23.7243 105.387 23.7243C104.117 23.7243 103.069 23.3066 102.243 22.4713C101.418 21.615 101.005 20.4769 101.005 19.0567C101.005 17.6366 101.418 16.5089 102.243 15.6735C103.069 14.8173 104.117 14.3891 105.387 14.3891C106.636 14.3891 107.673 14.8173 108.499 15.6735C109.324 16.5089 109.737 17.6366 109.737 19.0567C109.737 20.4769 109.324 21.615 108.499 22.4713ZM127.531 23.7243C128.78 23.7243 129.817 23.3066 130.642 22.4713C131.468 21.615 131.881 20.4769 131.881 19.0567C131.881 17.6366 131.468 16.5089 130.642 15.6735C129.817 14.8173 128.78 14.3891 127.531 14.3891C126.26 14.3891 125.213 14.8173 124.387 15.6735C123.561 16.5089 123.149 17.6366 123.149 19.0567C123.149 20.4769 123.561 21.615 124.387 22.4713C125.213 23.3066 126.26 23.7243 127.531 23.7243Z" fill="white"/>
<rect x="142.846" width="1.60039" height="32" fill="white"/>
</svg>
