<svg width="32" height="32" viewBox="0 0 32 32" fill="none" xmlns="http://www.w3.org/2000/svg">
<path fill-rule="evenodd" clip-rule="evenodd" d="M29 3H26V29H29V3ZM21.9086 18.0557C21.9721 17.2412 22.0038 16.8026 22.0038 16.74C22.0038 14.9857 21.6122 13.4507 20.829 12.135C20.0669 10.7985 19.0085 9.77515 17.6537 9.06509C16.2989 8.35503 14.7854 8 13.113 8C11.3984 8 9.84251 8.37591 8.44539 9.12774C7.06944 9.85868 5.97926 10.8924 5.17485 12.229C4.39162 13.5447 4 15.0275 4 16.6773C4 18.3481 4.4022 19.8413 5.20661 21.157C6.01101 22.4727 7.15411 23.5064 8.63591 24.2583C10.1177 24.9892 11.8218 25.3547 13.7481 25.3547C16.8387 25.3547 19.1884 24.4462 20.7972 22.6293L18.1617 19.8099C17.569 20.3738 16.9234 20.7915 16.2248 21.063C15.5474 21.3136 14.7642 21.4389 13.8751 21.4389C12.5838 21.4389 11.5042 21.1361 10.6363 20.5304C9.76842 19.9248 9.21804 19.0999 8.98519 18.0557H21.9086ZM10.3188 12.6363C11.0809 12.0097 12.0229 11.6965 13.1448 11.6965C14.2456 11.6965 15.177 12.0202 15.939 12.6676C16.7011 13.2941 17.1668 14.1399 17.3362 15.205H8.92168C9.09103 14.119 9.55674 13.2628 10.3188 12.6363Z" fill="black"/>
</svg>
